<?xml version="1.0" encoding="UTF-8" standalone="no"?>
<!-- Generator: imaengine 6.0   -->

<svg
   viewBox="0 0 1416.3108 371.13544"
   version="1.1"
   id="svg1"
   width="1416.3108"
   height="371.13544"
   xmlns="http://www.w3.org/2000/svg"
   xmlns:svg="http://www.w3.org/2000/svg">
  <defs
     id="defs1" />
  <g
     id="layer0"
     transform="translate(-95.757592,-42.556512)">
    <path
       d="m 424.027,410.32 c -1.799,-2.726 -2.675,-5.734 -3.136,-10.774 -0.352,-3.846 -1.58,-9.905 -2.728,-13.465 -1.249,-3.869 -2.373,-10.837 -2.797,-17.321 -0.389,-5.966 -1.05,-11.358 -1.467,-11.982 -0.67,-1 -1.411,-10.39 -3.097,-39.215 -0.26,-4.457 -0.88,-8.724 -1.377,-9.482 -0.496,-0.76 -0.981,-5.205 -1.075,-9.879 -0.129,-6.339 -0.626,-9.166 -1.956,-11.123 -1.364,-2.009 -1.653,-3.766 -1.228,-7.485 0.375,-3.282 0.029,-6.268 -1.067,-9.199 -1.004,-2.685 -1.414,-5.766 -1.074,-8.085 0.36,-2.455 0.007,-4.764 -1.025,-6.696 -0.968,-1.812 -1.701,-6.138 -1.901,-11.225 -0.181,-4.551 -1.017,-10.134 -1.859,-12.407 -0.899,-2.428 -1.51,-7.164 -1.48,-11.474 0.048,-6.711 -0.21,-7.69 -3.021,-11.408 -1.692,-2.238 -3.086,-4.926 -3.1,-5.974 -0.014,-1.048 1.919,-4.127 4.296,-6.84 2.477,-2.83 4.57,-6.365 4.904,-8.289 1.115,-6.408 2.292,-7.117 12.563,-7.555 9.074,-0.388 9.382,-0.325 14.399,2.926 5.204,3.374 14.874,13.47 15.626,16.316 0.226,0.856 0.89,5.601 1.475,10.544 0.583,4.943 1.509,10.373 2.055,12.068 2.121,6.57 -7.745,22.031 -15.343,24.043 -1.523,0.404 -4.813,-0.268 -8.777,-1.795 -7.866,-3.028 -9.755,-3.023 -12.545,0.027 -1.835,2.004 -2.083,3.069 -1.462,6.27 0.411,2.119 1.204,4.414 1.763,5.099 0.558,0.685 0.788,3.382 0.512,5.994 -0.278,2.612 0.015,7.737 0.65,11.389 0.823,4.734 0.857,7.535 0.116,9.75 -0.801,2.4 -0.697,3.899 0.456,6.558 0.821,1.896 1.512,4.842 1.534,6.546 0.022,1.702 0.451,3.849 0.953,4.769 0.502,0.92 1.325,9.993 1.829,20.162 1.377,27.75 1.564,29.828 2.811,31.291 0.666,0.782 1.145,4.668 1.138,9.255 -0.012,9.277 1.298,21.464 2.459,22.877 0.447,0.545 0.973,3.671 1.168,6.948 0.228,3.825 1.183,7.466 2.67,10.177 2.635,4.802 3.627,11.348 1.821,12.011 -0.653,0.239 -2.311,-1.267 -3.683,-3.347 z m 4.662,-178.163 c 4.5,-3.688 6.472,-14.069 4.496,-23.675 -0.971,-4.722 -9.125,-13.055 -15.483,-15.823 -4.065,-1.769 -4.303,-1.77 -6.182,-0.024 -1.075,0.999 -2.196,3.22 -2.49,4.936 -0.986,5.73 -1.076,6.119 -1.832,7.935 -0.867,2.083 0.432,16.876 1.782,20.291 2.787,7.054 14.32,10.776 19.709,6.36 z m -307.548,171.77 c -1.707,-6.737 -2.614,-16.108 -1.923,-19.862 0.463,-2.517 0.956,-7.278 1.093,-10.58 0.139,-3.302 0.772,-8.897 1.408,-12.433 0.931,-5.185 0.879,-8.061 -0.269,-14.857 -1.035,-6.114 -1.145,-9.2 -0.404,-11.244 1.146,-3.161 0.559,-14.42 -0.911,-17.468 -0.527,-1.094 -1.448,-6.257 -2.047,-11.475 -0.598,-5.217 -2.099,-15.998 -3.336,-23.958 -1.236,-7.959 -2.28,-16.152 -2.319,-18.207 -0.039,-2.054 -0.535,-5.648 -1.102,-7.986 -3.282,-13.543 -5.093,-25.032 -6.021,-38.189 -0.554,-7.866 -1.26,-11.103 -3.319,-15.22 -1.788,-3.576 -2.484,-6.301 -2.202,-8.622 0.233,-1.919 -0.2694,-4.752 -1.1547,-6.522 -1.5285,-3.053 -1.4891,-3.21 1.6307,-6.515 2.753,-2.916 4.097,-3.495 9.669,-4.166 5.289,-0.636 6.81,-0.481 8.317,0.847 2.376,2.094 3.114,7.89 1.655,13.001 -2.263,7.93 -0.67,47.386 2.054,50.888 0.463,0.595 0.358,4.689 -0.236,9.097 -0.7,5.213 -0.736,8.884 -0.103,10.502 0.536,1.368 0.735,5.701 0.442,9.629 -0.292,3.928 -0.096,8.201 0.437,9.495 2.599,6.317 6.033,60.678 3.999,63.31 -0.433,0.561 -0.43,4.615 0.008,9.01 0.847,8.505 0.837,9.182 -0.399,28.508 -0.874,13.65 -2.035,20.572 -3.748,22.331 -0.608,0.624 -1.156,0.932 -1.219,0.686 z m 543.006,-27.33 c -1.816,-0.557 -4.684,-2.709 -6.373,-4.785 -1.689,-2.075 -4.83,-4.732 -6.979,-5.904 -2.151,-1.172 -4.458,-3.405 -5.128,-4.963 -0.669,-1.559 -1.984,-2.824 -2.921,-2.811 -2.585,0.033 -6.118,-4.202 -6.815,-8.17 -0.663,-3.769 1.513,-9.123 4.704,-11.576 0.926,-0.713 2.275,-1.855 2.996,-2.54 1.918,-1.82 12.597,-7.227 14.318,-7.249 1.928,-0.026 19.396,-17.807 22.555,-22.959 2.151,-3.509 2.437,-5.112 2.333,-13.084 -0.066,-4.996 -0.575,-9.91 -1.133,-10.919 -0.556,-1.009 -1.338,-5.582 -1.736,-10.162 -0.399,-4.58 -1.393,-11.387 -2.211,-15.124 -0.817,-3.739 -1.511,-8.792 -1.543,-11.231 -0.064,-4.857 -2.619,-8.401 -6.024,-8.357 -1.052,0.014 -4.522,1.376 -7.711,3.026 -7.015,3.63 -20.77,5.918 -27.299,4.541 -6.321,-1.333 -13.742,-6.673 -16.277,-11.712 -1.81,-3.597 -2.106,-5.618 -1.834,-12.524 0.275,-6.996 0.8,-9.09 3.488,-13.937 4.828,-8.7 10.778,-14.914 14.938,-15.601 1.921,-0.316 3.938,-0.932 4.483,-1.369 0.544,-0.437 2.56,-1.137 4.48,-1.559 14.882,-3.26 33.054,3.902 33.174,13.077 0.021,1.589 1.356,4.908 2.968,7.377 3.091,4.735 3.092,4.744 5.088,35.479 0.269,4.122 1.081,12.887 1.805,19.478 1.209,10.993 3.216,34.01 3.702,42.455 0.241,4.202 -0.716,18.837 -1.867,28.527 -2.44,20.549 -5.833,30.006 -13.788,38.434 -5.229,5.539 -5.959,5.804 -11.393,4.142 z m 11.211,-15.446 c 5.117,-5.861 7.156,-13.472 7.343,-27.404 0.142,-10.595 -0.065,-12.354 -1.621,-13.725 -1.659,-1.462 -2.125,-1.226 -6.607,3.342 -2.653,2.703 -7.097,6.711 -9.876,8.907 -2.779,2.196 -6.445,6.024 -8.145,8.505 -4.49,6.55 -3.495,10.604 5.138,20.938 3.303,3.955 3.845,4.23 7.133,3.622 2.311,-0.429 4.637,-1.895 6.635,-4.185 z M 652.494,229.556 c 7.46,-1.858 10.449,-5.004 10.372,-10.913 -0.047,-3.584 -0.63,-4.618 -4.608,-8.175 -2.504,-2.24 -4.56,-4.584 -4.568,-5.209 -0.009,-0.625 -1.214,-2.054 -2.677,-3.174 -11.303,-8.654 -27.707,12.468 -19.407,24.987 2.858,4.311 10.096,5.171 20.888,2.484 z m 765.036,22.345 c -1.3,-0.5 -3.9,-1.079 -5.78,-1.288 -6.62,-0.732 -13.04,-6.384 -18.5,-16.286 -2.23,-4.034 -2.4,-5.251 -2.02,-13.71 0.26,-5.391 1.09,-10.622 1.98,-12.474 0.85,-1.755 1.53,-3.776 1.52,-4.493 -0.02,-1.52 4.89,-10.305 8.4,-15.035 3.97,-5.342 9.84,-8.745 16.25,-9.411 5.31,-0.552 5.92,-0.385 9.4,2.589 2.04,1.747 3.72,3.745 3.73,4.437 0.01,0.691 1.39,2.94 3.06,4.994 1.68,2.054 3.06,4.357 3.07,5.116 0.03,1.963 -5.26,11.93 -8.28,15.617 -5.29,6.458 -12.64,10.3 -19,9.933 l -4.89,-0.282 0.34,4.39 c 0.42,5.409 3.5,9.808 8.16,11.688 1.94,0.778 7.39,1.612 12.14,1.853 9.6,0.489 12.98,-0.511 21.2,-6.28 4.94,-3.465 6.67,-6.24 7.28,-11.622 0.21,-1.833 1.2,-4.999 2.2,-7.036 1.01,-2.036 2.33,-5.732 2.93,-8.212 2.36,-9.613 7.96,-18.214 14.39,-22.13 4.71,-2.856 12.46,-2.927 17.07,-0.155 3.22,1.933 8.45,10.7 8.49,14.254 0.02,1.3 4.22,7.017 8.61,11.692 4.59,4.905 3.52,11.256 -3.26,19.344 -7.46,8.904 -23.43,14.016 -31.81,10.188 -4.72,-2.154 -5.3,-2.477 -8.55,-4.699 -2.78,-1.899 -2.81,-1.898 -4.39,0.096 -0.88,1.104 -6.1,5.086 -11.6,8.847 -7.26,4.973 -11.43,7.132 -15.27,7.913 -6.46,1.312 -13.72,1.381 -16.87,0.162 z m 71.82,-25.811 c 3.97,-1.569 7.61,-5.956 7.57,-9.125 -0.05,-3.381 -4.45,-7.464 -9.08,-8.417 -1.66,-0.342 -3.28,-1.034 -3.61,-1.538 -0.31,-0.504 -2.09,-0.896 -3.95,-0.871 -7.08,0.093 -9.81,9.267 -4.69,15.79 3.81,4.878 8.43,6.271 13.76,4.161 z m -70.18,-22.125 c 1.67,-0.66 2.55,-1.768 2.53,-3.205 -0.04,-2.464 -2.73,-5.818 -4.65,-5.793 -1.51,0.02 -5.35,6.117 -5.32,8.438 0.02,1.876 3.46,2.134 7.44,0.56 z m -147.86,46.444 c -6.54,-4.437 -10.07,-12.55 -11.89,-27.373 -0.43,-3.569 -1.06,-6.929 -1.37,-7.464 -0.33,-0.537 -0.68,-1.658 -0.79,-2.49 -0.1,-0.834 -0.68,-3.535 -1.29,-6.002 -0.65,-2.597 -0.98,-10.296 -0.8,-18.282 0.18,-8.447 -0.17,-15.925 -0.92,-19.288 -1.54,-6.95 -2.14,-50.938 -0.8,-58.291 0.54,-2.97 0.96,-7.251 0.94,-9.513 -0.03,-2.6161 0.83,-5.5827 2.36,-8.1459 1.33,-2.2176 2.42,-4.635 2.43,-5.372 0.01,-1.98 4.12,-5.1433 6.76,-5.2161 4.96,-0.1368 15.3,7.2819 15.34,11.0124 0.02,1.0189 0.71,3.1231 1.54,4.6743 0.83,1.5513 2.02,5.4513 2.66,8.6663 0.63,3.215 1.64,8.089 2.22,10.831 1.59,7.411 2.39,26.954 1.37,33.753 -0.47,3.274 -1.83,8.011 -3.01,10.527 -1.17,2.515 -2.5,6.311 -2.93,8.435 -0.43,2.123 -1.15,5.678 -1.6,7.901 -0.45,2.221 -1.55,4.858 -2.43,5.86 -0.88,1.002 -1.58,3.332 -1.56,5.178 0.02,1.847 -0.76,4.296 -1.75,5.445 -0.98,1.148 -3.69,5.263 -6,9.144 l -4.22,7.056 1.08,5.986 c 1.39,7.744 4.74,16.304 7.43,19.036 3.33,3.366 10.83,3.919 15.41,1.137 2.01,-1.219 3.64,-2.622 3.64,-3.118 -0.01,-0.495 0.64,-0.909 1.44,-0.92 0.8,-0.01 2.68,-1.723 4.2,-3.805 3.61,-4.976 5.23,-6.249 8.04,-6.324 2.11,-0.057 2.27,0.246 1.67,3.163 -1.66,8.024 -12.4,20.198 -20.67,23.422 -9.56,3.728 -11.47,3.771 -16.5,0.377 z m -2.05,-70.838 c 1.06,-2.947 2.22,-7.125 2.58,-9.284 0.38,-2.16 1.52,-5.165 2.55,-6.675 1.16,-1.711 2.4,-6.639 3.28,-13.044 1.16,-8.486 1.19,-12.053 0.15,-20.281 -2.73,-21.581 -8.91,-33.7731 -10.84,-21.384 -0.33,2.186 -1.45,5.068 -2.48,6.405 -3.68,4.813 -4.92,30.241 -2.75,56.693 0.51,6.319 1.14,11.824 1.39,12.233 0.25,0.409 1.3,0.733 2.33,0.72 1.34,-0.018 2.41,-1.535 3.79,-5.383 z m -41.92,70.901 c -4.11,-2.652 -9.02,-8.045 -10.8,-11.872 -0.39,-0.82 -2.27,-3.608 -4.19,-6.196 -4.17,-5.631 -6.62,-5.944 -15.78,-2.024 -3.92,1.675 -7.91,2.577 -11.61,2.628 -5.1,0.072 -6.11,-0.295 -10.47,-3.806 -2.66,-2.136 -5.42,-5.231 -6.13,-6.878 -1.66,-3.809 -1.97,-19.265 -0.44,-22.867 1.69,-4.015 6.73,-10.312 8.27,-10.332 0.73,-0.01 1.33,-0.418 1.32,-0.907 -0.01,-0.488 1.68,-1.193 3.73,-1.566 2.06,-0.372 6.47,-1.22 9.79,-1.884 14.34,-2.869 25.81,6.536 23.59,19.348 -0.82,4.785 -0.75,5.014 2.71,8.468 1.96,1.952 4.39,5.092 5.4,6.979 1.01,1.887 2.33,4.324 2.95,5.416 0.6,1.092 1.79,3.552 2.65,5.465 0.84,1.915 4.34,6.44 7.75,10.058 6.75,7.132 7.06,8.758 2.2,11.351 -4.01,2.144 -5.82,1.914 -10.94,-1.381 z m -34.1,-33.742 c 8.13,-5.763 9.76,-11.866 4.35,-16.296 -3.3,-2.71 -7.67,-3.247 -11.09,-1.364 -4.31,2.386 -6.21,13.361 -3.05,17.739 2.02,2.813 5.74,2.783 9.79,-0.079 z m 150.57,31.234 c -1.66,-0.398 -5.42,-1.955 -8.36,-3.461 -6.52,-3.343 -8.11,-6.348 -9.95,-18.813 -1.17,-7.894 -1.13,-9.685 0.33,-15.006 2.55,-9.289 6.31,-16.591 11.55,-22.423 4.22,-4.711 5.22,-5.319 8.77,-5.365 5.13,-0.068 9.94,1.486 14.24,4.597 3.32,2.397 3.39,2.613 2.91,7.981 -0.27,3.035 -1.08,5.897 -1.78,6.363 -2.54,1.653 -6.08,0.896 -9.5,-2.027 -2.9,-2.475 -3.81,-2.78 -5.5,-1.848 -1.11,0.615 -2.68,2.777 -3.48,4.806 -0.82,2.03 -2.02,4.372 -2.68,5.206 -0.65,0.833 -1.76,3.4 -2.46,5.703 -1.13,3.781 -1.02,4.946 1.25,11.985 2.3,7.209 2.79,7.943 6.5,9.74 8.02,3.878 23.59,1.626 28.62,-4.137 2.31,-2.641 3.08,-2.941 6.22,-2.396 3.14,0.546 3.58,0.987 3.62,3.546 0.03,2.367 -0.95,3.671 -5.16,6.862 -2.86,2.167 -6.99,4.733 -9.18,5.702 -2.19,0.969 -4.75,2.2 -5.7,2.735 -2.01,1.136 -15.87,1.306 -20.26,0.25 z m -620.973,6.256 c -2.213,-1.013 -5.393,-3.265 -7.066,-5.006 l -3.042,-3.167 0.015,-13.309 c 0.01,-8.932 0.536,-15.193 1.599,-19.04 1.609,-5.814 1.146,-14.532 -0.769,-14.507 -0.505,0.007 -2.718,0.76 -4.916,1.673 -4.503,1.871 -8.097,1.405 -11.003,-1.426 -1.661,-1.618 -1.797,-2.43 -0.954,-5.713 1.192,-4.642 3.16,-6.928 10.354,-12.023 8.346,-5.911 13.644,-4.761 19.009,4.124 l 2.772,4.592 -1.55,15.058 c -0.854,8.282 -1.993,16.674 -2.531,18.649 -1.428,5.243 0.772,14.47 3.932,16.482 4.015,2.556 11.572,-0.732 18.284,-7.956 4.032,-4.34 5.107,-4.962 8.657,-5.009 4.567,-0.06 7.393,2.167 7.441,5.863 0.055,4.167 -9.46,11.96 -23.747,19.45 -5.575,2.924 -11.81,3.401 -16.485,1.265 z m 363.483,-3.912 c -0.84,-0.522 -3.58,-0.929 -6.09,-0.905 -4.09,0.041 -4.92,-0.357 -7.64,-3.665 -4.35,-5.283 -5.27,-7.278 -4.9,-10.687 0.16,-1.652 -0.25,-5.922 -0.93,-9.488 -0.69,-3.567 -1.13,-6.936 -0.98,-7.488 0.15,-0.552 0.23,-3.479 0.17,-6.503 -0.08,-4.361 0.64,-7.013 3.46,-12.817 3.83,-7.887 5.25,-9.226 11.98,-11.281 5.25,-1.6 17.76,-0.811 19.88,1.254 1.84,1.794 4.71,1.69 6.26,-0.227 1.51,-1.873 0.64,-13.248 -1.65,-21.456 -0.84,-3.015 -1.91,-10.426 -2.37,-16.471 -0.47,-6.044 -1.24,-11.716 -1.73,-12.605 -0.5,-0.889 -0.89,-2.909 -0.88,-4.489 0.01,-1.58 -0.73,-7.139 -1.62,-12.353 -2.4,-13.961 -6.46,-40.6901 -7.03,-46.2819 -0.94,-9.1393 2.61,-11.7172 10.61,-7.6838 3.13,1.5786 4.14,2.7391 4.55,5.1908 0.61,3.7091 2.09,35.0019 3.09,66.1299 0.62,18.973 1.69,32.882 3.26,42.46 0.23,1.373 0.79,5.191 1.24,8.485 0.49,3.515 1.6,6.807 2.69,7.967 1.84,1.971 4.55,16.753 4.1,22.402 -0.25,3.128 1.03,7.032 2.29,7.015 1.39,-0.018 1.13,5.23 -0.36,7.255 -1.61,2.174 -3.78,2.266 -7.66,0.325 -1.82,-0.911 -2.96,-1.073 -2.95,-0.418 0.03,2.55 -9.6,11.414 -15.49,14.266 -6.59,3.185 -8.86,3.601 -11.3,2.069 z m 10.44,-12.423 c 6.53,-3.888 14.21,-14.024 14.15,-18.669 -0.03,-2.571 -1.03,-3.775 -5.36,-6.47 -1.55,-0.959 -2.54,-2.186 -2.22,-2.726 0.78,-1.309 -3.14,-7.359 -6.38,-9.839 -3.02,-2.314 -7.31,-2.497 -11.1,-0.473 -3.77,2.014 -5.49,4.347 -7.93,10.752 -2.75,7.242 -1.92,15.171 2.38,22.617 2.47,4.261 3.54,5.215 6.17,5.509 6.08,0.681 8.21,0.536 10.29,-0.701 z M 874.806,250.84 c -10.683,-6.528 -14.426,-12.38 -14.914,-23.323 -0.165,-3.706 -0.947,-8.248 -1.738,-10.094 l -1.439,-3.355 -2.169,2.062 c -1.194,1.135 -4.238,3.143 -6.766,4.463 -2.527,1.321 -6.86,4.231 -9.629,6.467 -12.956,10.466 -15.189,11.968 -23.951,16.111 -9.346,4.42 -18.885,4.477 -25.296,0.153 -6.242,-4.21 -9.378,-7.803 -12.418,-14.228 -2.172,-4.588 -2.596,-6.588 -2.113,-9.973 0.712,-5.008 8.298,-21.733 10.876,-23.983 3.672,-3.204 9.6,-6.103 13.761,-6.729 3.589,-0.54 5.16,-0.16 9.665,2.341 2.957,1.642 6.556,4.238 7.996,5.769 2.784,2.959 5.038,9.097 5.101,13.891 0.044,3.372 -5.127,10.422 -7.687,10.478 -2.648,0.059 -8.885,2.56 -10.828,4.343 -0.974,0.894 -2.889,1.794 -4.257,2 -3.145,0.473 -3.604,2.886 -1.118,5.875 1.629,1.96 2.845,2.308 7.822,2.24 10.241,-0.139 12.655,-1.057 22.782,-8.654 3.812,-2.86 8.382,-6.142 10.155,-7.291 1.773,-1.149 3.218,-2.457 3.212,-2.905 -0.006,-0.448 2.308,-2.285 5.142,-4.08 6.432,-4.075 15.448,-11.977 16.95,-14.856 0.623,-1.194 3.524,-4.758 6.445,-7.92 6.879,-7.444 9.566,-8.011 18.19,-3.842 7.314,3.536 7.894,4.204 7.981,9.185 0.105,6.121 -6,8.786 -12.551,5.478 -3.909,-1.974 -5.095,-1.828 -6.739,0.832 -8.517,13.782 -4.83,36.597 6.344,39.245 1.169,0.278 4.355,-0.02 7.08,-0.661 4.29,-1.008 6.112,-2.343 13.589,-9.961 6.087,-6.2 8.626,-9.507 8.604,-11.201 -0.017,-1.323 0.358,-4.038 0.834,-6.033 0.477,-1.995 1.373,-6.026 1.992,-8.958 1.832,-8.674 3.428,-10.997 9.851,-14.345 4.356,-2.272 7.235,-3.065 11.312,-3.119 3.009,-0.039 5.741,-0.525 6.074,-1.08 0.333,-0.554 2.266,-1.031 4.296,-1.061 3.34,-0.048 4.491,0.766 12.139,8.592 12.536,12.825 13.757,14.85 13.178,21.842 -0.518,6.263 -6.584,21.179 -9.264,22.781 -0.863,0.515 -2.718,2.23 -4.124,3.811 -3.88,4.362 -12.944,7.307 -20.902,6.791 -3.579,-0.232 -7.409,-0.641 -8.513,-0.909 -1.104,-0.269 -2.513,-0.516 -3.132,-0.55 -2.01,-0.111 -8.147,-6.374 -9.99,-10.197 -0.988,-2.049 -2.323,-3.72 -2.967,-3.712 -0.644,0.009 -3.597,2.575 -6.562,5.703 -2.965,3.128 -7.827,7.315 -10.803,9.305 -4.654,3.114 -6.393,3.681 -12.448,4.057 -4.491,0.279 -7.765,-0.009 -9.053,-0.795 z m 75.725,-15.72 c 2.509,-1.115 5.398,-2.841 6.418,-3.834 3.39,-3.304 5.982,-9.648 5.918,-14.49 -0.069,-5.258 -1.099,-6.126 -7.439,-6.266 -3.164,-0.069 -4.48,-0.784 -7.303,-3.966 -1.894,-2.135 -3.449,-4.212 -3.454,-4.616 -0.005,-0.405 -1.405,-1.433 -3.11,-2.288 -2.934,-1.468 -3.353,-1.423 -7.74,0.826 -4.312,2.211 -4.724,2.768 -5.844,7.895 -3.212,14.712 1.841,26.282 12.282,28.12 4.528,0.798 5.733,0.635 10.272,-1.381 z M 801.905,209.837 c 1.318,-2.14 0.897,-5.833 -0.735,-6.435 -1.73,-0.638 -6.298,2.126 -7.098,4.292 -1.041,2.825 0.475,4.373 3.824,3.904 1.76,-0.246 3.565,-1.039 4.009,-1.761 z m -592.576,39.165 c -0.622,-1.127 -1.146,-3.166 -1.164,-4.531 -0.046,-3.541 -3.796,-11.527 -5.751,-12.248 -0.916,-0.338 -3.922,0.568 -6.751,2.033 -2.804,1.454 -7.113,3.463 -9.575,4.464 -2.462,1.002 -5.181,2.7 -6.043,3.773 -1.378,1.716 -2.341,1.874 -7.983,1.311 -3.529,-0.351 -7.182,-1.298 -8.118,-2.102 -0.934,-0.805 -3.203,-2.19 -5.041,-3.078 -3.93,-1.898 -4.582,-3.996 -4.908,-15.768 -0.519,-18.822 5.207,-27.907 22.396,-35.53 4.568,-2.026 6.532,-2.339 12.175,-1.94 6.491,0.458 10.019,1.588 12.495,4 0.647,0.631 2.578,2.294 4.291,3.697 1.713,1.404 4.35,5.076 5.86,8.159 2.53,5.167 2.649,5.916 1.51,9.524 -1.388,4.396 -0.858,10.425 1.774,20.191 0.401,1.491 3.188,4.918 6.194,7.618 3.005,2.7 5.472,5.537 5.482,6.305 0.037,2.776 -3.741,4.927 -9.75,5.552 -5.303,0.551 -6.086,0.393 -7.093,-1.43 z m -21.694,-19.594 c 9.881,-5.113 10.895,-6.36 9.3,-11.442 -0.687,-2.188 -2.256,-4.889 -3.486,-6.001 -1.231,-1.113 -2.978,-4.128 -3.88,-6.702 -2.842,-8.091 -7.985,-8.838 -15.769,-2.287 -4.897,4.122 -5.914,6.322 -7.101,15.363 -1.033,7.875 0.123,11.209 4.633,13.359 4.864,2.32 8.334,1.833 16.303,-2.29 z m 136.26,12.715 c -3.478,-2.333 -5.812,-4.623 -5.826,-5.716 -0.013,-1.003 -1.407,-4.372 -3.098,-7.487 -3.356,-6.181 -3.665,-8.594 -2.133,-16.647 2.43,-12.762 2.799,-13.667 6.284,-15.376 1.828,-0.897 3.58,-2.06 3.896,-2.585 0.949,-1.583 8.484,-3.305 16.845,-3.849 6.442,-0.42 8.657,-0.155 12.081,1.447 5.229,2.448 9.162,6.489 10.114,10.391 0.4,1.644 1.83,4.627 3.177,6.627 4.345,6.458 4.236,7.692 -1.265,14.382 -6.985,8.497 -10.663,12.407 -16.866,17.937 -5.209,4.643 -5.625,4.817 -11.407,4.794 -5.276,-0.021 -6.702,-0.494 -11.802,-3.918 z m 14.867,-9.535 c 1.666,-0.858 3.572,-2.233 4.236,-3.056 0.664,-0.822 1.758,-1.502 2.429,-1.511 1.91,-0.025 9.033,-9.297 9.595,-12.489 0.951,-5.406 -3.465,-10.507 -9.081,-10.488 -1.771,0.005 -4.932,-0.854 -7.027,-1.911 -5.691,-2.873 -7.788,-1.793 -11.294,5.809 -3.442,7.46 -3.391,12.45 0.17,16.858 1.196,1.481 2.184,3.308 2.194,4.058 0.01,0.751 0.468,1.359 1.018,1.352 0.55,-0.007 1.009,0.662 1.02,1.487 0.025,1.924 2.884,1.877 6.74,-0.109 z m 143.41,10.623 c -1.381,-0.481 -3.702,-1.097 -5.158,-1.369 -3.045,-0.567 -8.465,-8.037 -10.22,-14.082 -0.604,-2.082 -1.956,-4.368 -3.004,-5.083 -1.975,-1.345 -2.719,-6.595 -1.083,-7.637 0.495,-0.315 2.261,-3.402 3.925,-6.861 6.373,-13.248 10.209,-16.282 22.026,-17.43 10.006,-0.972 23.601,3.71 26.49,9.124 1.944,3.64 2.208,18.426 0.392,21.917 -0.721,1.384 -2.3,4.445 -3.509,6.802 -1.21,2.357 -3.603,5.285 -5.317,6.506 -1.714,1.221 -4.272,3.596 -5.683,5.279 -2.343,2.791 -3.168,3.085 -9.457,3.384 -3.79,0.18 -8.02,-0.068 -9.402,-0.55 z m 12.287,-11.031 c 0.294,-0.491 2.092,-1.206 3.995,-1.589 4.272,-0.86 7.492,-4.837 7.434,-9.187 -0.049,-3.803 -1.497,-5.219 -6.174,-6.038 -4.307,-0.756 -6.944,-2.95 -6.982,-5.811 -0.044,-3.381 -2.451,-4.772 -6.756,-3.907 -8.842,1.779 -10.976,4.762 -9.799,13.697 0.794,6.026 2.883,9.226 7.663,11.736 3.865,2.031 9.698,2.634 10.619,1.099 z m -234.963,11.492 c -1.17,-0.797 -2.452,-2.692 -2.849,-4.213 -0.397,-1.52 -1.798,-3.875 -3.113,-5.233 -1.315,-1.358 -3.274,-4.647 -4.354,-7.309 l -1.965,-4.841 2.576,-7.668 c 3.738,-11.133 8.238,-18.902 11.437,-19.75 1.442,-0.382 3.719,-1.581 5.06,-2.665 3.621,-2.925 9.972,-2.725 13.461,0.426 1.525,1.378 2.781,3.072 2.79,3.764 0.024,1.891 -2.092,3.685 -4.402,3.733 -1.128,0.023 -3.166,0.714 -4.53,1.536 -1.364,0.823 -4.38,2.452 -6.701,3.619 -5.992,3.016 -7.511,6.569 -6.84,16.009 0.773,10.875 4.214,15.006 12.414,14.898 6.761,-0.089 12.853,-4.061 21.176,-13.806 1.708,-1.999 3.013,-2.562 5.47,-2.356 2.702,0.225 3.286,0.726 3.587,3.075 0.533,4.173 -3.907,9.491 -10.551,12.634 -3.065,1.45 -8.028,4.161 -11.029,6.022 -4.798,2.976 -6.304,3.396 -12.482,3.479 -4.583,0.062 -7.767,-0.409 -9.155,-1.354 z M 99.7532,137.482 c -4.8507,-2.343 -5.3108,-6.425 -1.2381,-10.982 3.9219,-4.389 9.8129,-4.745 13.0119,-0.786 3.199,3.958 2.804,7.748 -1.129,10.83 -3.904,3.059 -5.893,3.235 -10.6448,0.938 z M 1146.94,114.07 c -2.21,-1.508 -2.13,-3.502 1.17,-25.8349 0.54,-3.7194 0.81,-14.6052 0.57,-24.1905 -0.42,-17.3722 -0.41,-17.4345 2,-19.4955 4.08,-3.4848 7.92,-2.2532 7.98,2.5588 0.02,1.3011 0.56,3.3211 1.2,4.4891 1.86,3.3729 2.52,21.4624 0.87,24.0725 -0.74,1.1913 -1.59,3.2942 -1.88,4.6732 -0.3,1.3789 -1.66,6.6734 -3.04,11.7656 -1.37,5.0916 -2.68,11.3807 -2.92,13.9737 -0.33,3.825 -2.49,9.374 -3.64,9.389 -0.14,0.002 -1.17,-0.628 -2.31,-1.401 z"
       fill="#000000"
       id="path1" />
  </g>
</svg>
