<?xml version='1.0' encoding='utf-8'?>
<!-- Generator: imaengine 6.0   -->
<svg xmlns:xlink="http://www.w3.org/1999/xlink" xmlns="http://www.w3.org/2000/svg" viewBox="0,0,1578,446" style="enable-background:new 0 0 1578 446;" version="1.1">
<defs/>
<g id="layer0">
<path d="M424.027,410.32C422.228,407.594 421.352,404.586 420.891,399.546C420.539,395.7 419.311,389.641 418.163,386.081C416.914,382.212 415.79,375.244 415.366,368.76C414.977,362.794 414.316,357.402 413.899,356.778C413.229,355.778 412.488,346.388 410.802,317.563C410.542,313.106 409.922,308.839 409.425,308.081C408.929,307.321 408.444,302.876 408.35,298.202C408.221,291.863 407.724,289.036 406.394,287.079C405.03,285.07 404.741,283.313 405.166,279.594C405.541,276.312 405.195,273.326 404.099,270.395C403.095,267.71 402.685,264.629 403.025,262.31C403.385,259.855 403.032,257.546 402,255.614C401.032,253.802 400.299,249.476 400.099,244.389C399.918,239.838 399.082,234.255 398.24,231.982C397.341,229.554 396.73,224.818 396.76,220.508C396.808,213.797 396.55,212.818 393.739,209.1C392.047,206.862 390.653,204.174 390.639,203.126C390.625,202.078 392.558,198.999 394.935,196.286C397.412,193.456 399.505,189.921 399.839,187.997C400.954,181.589 402.131,180.88 412.402,180.442C421.476,180.054 421.784,180.117 426.801,183.368C432.005,186.742 441.675,196.838 442.427,199.684C442.653,200.54 443.317,205.285 443.902,210.228C444.485,215.171 445.411,220.601 445.957,222.296C448.078,228.866 438.212,244.327 430.614,246.339C429.091,246.743 425.801,246.071 421.837,244.544C413.971,241.516 412.082,241.521 409.292,244.571C407.457,246.575 407.209,247.64 407.83,250.841C408.241,252.96 409.034,255.255 409.593,255.94C410.151,256.625 410.381,259.322 410.105,261.934C409.827,264.546 410.12,269.671 410.755,273.323C411.578,278.057 411.612,280.858 410.871,283.073C410.07,285.473 410.174,286.972 411.327,289.631C412.148,291.527 412.839,294.473 412.861,296.177C412.883,297.879 413.312,300.026 413.814,300.946C414.316,301.866 415.139,310.939 415.643,321.108C417.02,348.858 417.207,350.936 418.454,352.399C419.12,353.181 419.599,357.067 419.592,361.654C419.58,370.931 420.89,383.118 422.051,384.531C422.498,385.076 423.024,388.202 423.219,391.479C423.447,395.304 424.402,398.945 425.889,401.656C428.524,406.458 429.516,413.004 427.71,413.667C427.057,413.906 425.399,412.4 424.027,410.32L424.027,410.32ZM428.689,232.157C433.189,228.469 435.161,218.088 433.185,208.482C432.214,203.76 424.06,195.427 417.702,192.659C413.637,190.89 413.399,190.889 411.52,192.635C410.445,193.634 409.324,195.855 409.03,197.571C408.044,203.301 407.954,203.69 407.198,205.506C406.331,207.589 407.63,222.382 408.98,225.797C411.767,232.851 423.3,236.573 428.689,232.157L428.689,232.157ZM121.141,403.927C119.434,397.19 118.527,387.819 119.218,384.065C119.681,381.548 120.174,376.787 120.311,373.485C120.45,370.183 121.083,364.588 121.719,361.052C122.65,355.867 122.598,352.991 121.45,346.195C120.415,340.081 120.305,336.995 121.046,334.951C122.192,331.79 121.605,320.531 120.135,317.483C119.608,316.389 118.687,311.226 118.088,306.008C117.49,300.791 115.989,290.01 114.752,282.05C113.516,274.091 112.472,265.898 112.433,263.843C112.394,261.789 111.898,258.195 111.331,255.857C108.049,242.314 106.238,230.825 105.31,217.668C104.756,209.802 104.05,206.565 101.991,202.448C100.203,198.872 99.507,196.147 99.789,193.826C100.022,191.907 99.5196,189.074 98.6343,187.304C97.1058,184.251 97.1452,184.094 100.265,180.789C103.018,177.873 104.362,177.294 109.934,176.623C115.223,175.987 116.744,176.142 118.251,177.47C120.627,179.564 121.365,185.36 119.906,190.471C117.643,198.401 119.236,237.857 121.96,241.359C122.423,241.954 122.318,246.048 121.724,250.456C121.024,255.669 120.988,259.34 121.621,260.958C122.157,262.326 122.356,266.659 122.063,270.587C121.771,274.515 121.967,278.788 122.5,280.082C125.099,286.399 128.533,340.76 126.499,343.392C126.066,343.953 126.069,348.007 126.507,352.402C127.354,360.907 127.344,361.584 126.108,380.91C125.234,394.56 124.073,401.482 122.36,403.241C121.752,403.865 121.204,404.173 121.141,403.927L121.141,403.927ZM664.147,376.597C662.331,376.04 659.463,373.888 657.774,371.812C656.085,369.737 652.944,367.08 650.795,365.908C648.644,364.736 646.337,362.503 645.667,360.945C644.998,359.386 643.683,358.121 642.746,358.134C640.161,358.167 636.628,353.932 635.931,349.964C635.268,346.195 637.444,340.841 640.635,338.388C641.561,337.675 642.91,336.533 643.631,335.848C645.549,334.028 656.228,328.621 657.949,328.599C659.877,328.573 677.345,310.792 680.504,305.64C682.655,302.131 682.941,300.528 682.837,292.556C682.771,287.56 682.262,282.646 681.704,281.637C681.148,280.628 680.366,276.055 679.968,271.475C679.569,266.895 678.575,260.088 677.757,256.351C676.94,252.612 676.246,247.559 676.214,245.12C676.15,240.263 673.595,236.719 670.19,236.763C669.138,236.777 665.668,238.139 662.479,239.789C655.464,243.419 641.709,245.707 635.18,244.33C628.859,242.997 621.438,237.657 618.903,232.618C617.093,229.021 616.797,227 617.069,220.094C617.344,213.098 617.869,211.004 620.557,206.157C625.385,197.457 631.335,191.243 635.495,190.556C637.416,190.24 639.433,189.624 639.978,189.187C640.522,188.75 642.538,188.05 644.458,187.628C659.34,184.368 677.512,191.53 677.632,200.705C677.653,202.294 678.988,205.613 680.6,208.082C683.691,212.817 683.692,212.826 685.688,243.561C685.957,247.683 686.769,256.448 687.493,263.039C688.702,274.032 690.709,297.049 691.195,305.494C691.436,309.696 690.479,324.331 689.328,334.021C686.888,354.57 683.495,364.027 675.54,372.455C670.311,377.994 669.581,378.259 664.147,376.597L664.147,376.597ZM675.358,361.151C680.475,355.29 682.514,347.679 682.701,333.747C682.843,323.152 682.636,321.393 681.08,320.022C679.421,318.56 678.955,318.796 674.473,323.364C671.82,326.067 667.376,330.075 664.597,332.271C661.818,334.467 658.152,338.295 656.452,340.776C651.962,347.326 652.957,351.38 661.59,361.714C664.893,365.669 665.435,365.944 668.723,365.336C671.034,364.907 673.36,363.441 675.358,361.151L675.358,361.151ZM652.494,229.556C659.954,227.698 662.943,224.552 662.866,218.643C662.819,215.059 662.236,214.025 658.258,210.468C655.754,208.228 653.698,205.884 653.69,205.259C653.681,204.634 652.476,203.205 651.013,202.085C639.71,193.431 623.306,214.553 631.606,227.072C634.464,231.383 641.702,232.243 652.494,229.556L652.494,229.556ZM1417.53,251.901C1416.23,251.401 1413.63,250.822 1411.75,250.613C1405.13,249.881 1398.71,244.229 1393.25,234.327C1391.02,230.293 1390.85,229.076 1391.23,220.617C1391.49,215.226 1392.32,209.995 1393.21,208.143C1394.06,206.388 1394.74,204.367 1394.73,203.65C1394.71,202.13 1399.62,193.345 1403.13,188.615C1407.1,183.273 1412.97,179.87 1419.38,179.204C1424.69,178.652 1425.3,178.819 1428.78,181.793C1430.82,183.54 1432.5,185.538 1432.51,186.23C1432.52,186.921 1433.9,189.17 1435.57,191.224C1437.25,193.278 1438.63,195.581 1438.64,196.34C1438.67,198.303 1433.38,208.27 1430.36,211.957C1425.07,218.415 1417.72,222.257 1411.36,221.89L1406.47,221.608L1406.81,225.998C1407.23,231.407 1410.31,235.806 1414.97,237.686C1416.91,238.464 1422.36,239.298 1427.11,239.539C1436.71,240.028 1440.09,239.028 1448.31,233.259C1453.25,229.794 1454.98,227.019 1455.59,221.637C1455.8,219.804 1456.79,216.638 1457.79,214.601C1458.8,212.565 1460.12,208.869 1460.72,206.389C1463.08,196.776 1468.68,188.175 1475.11,184.259C1479.82,181.403 1487.57,181.332 1492.18,184.104C1495.4,186.037 1500.63,194.804 1500.67,198.358C1500.69,199.658 1504.89,205.375 1509.28,210.05C1513.87,214.955 1512.8,221.306 1506.02,229.394C1498.56,238.298 1482.59,243.41 1474.21,239.582C1469.49,237.428 1468.91,237.105 1465.66,234.883C1462.88,232.984 1462.85,232.985 1461.27,234.979C1460.39,236.083 1455.17,240.065 1449.67,243.826C1442.41,248.799 1438.24,250.958 1434.4,251.739C1427.94,253.051 1420.68,253.12 1417.53,251.901L1417.53,251.901ZM1489.35,226.09C1493.32,224.521 1496.96,220.134 1496.92,216.965C1496.87,213.584 1492.47,209.501 1487.84,208.548C1486.18,208.206 1484.56,207.514 1484.23,207.01C1483.92,206.506 1482.14,206.114 1480.28,206.139C1473.2,206.232 1470.47,215.406 1475.59,221.929C1479.4,226.807 1484.02,228.2 1489.35,226.09L1489.35,226.09ZM1419.17,203.965C1420.84,203.305 1421.72,202.197 1421.7,200.76C1421.66,198.296 1418.97,194.942 1417.05,194.967C1415.54,194.987 1411.7,201.084 1411.73,203.405C1411.75,205.281 1415.19,205.539 1419.17,203.965L1419.17,203.965ZM1271.31,250.409C1264.77,245.972 1261.24,237.859 1259.42,223.036C1258.99,219.467 1258.36,216.107 1258.05,215.572C1257.72,215.035 1257.37,213.914 1257.26,213.082C1257.16,212.248 1256.58,209.547 1255.97,207.08C1255.32,204.483 1254.99,196.784 1255.17,188.798C1255.35,180.351 1255,172.873 1254.25,169.51C1252.71,162.56 1252.11,118.572 1253.45,111.219C1253.99,108.249 1254.41,103.968 1254.39,101.706C1254.36,99.0899 1255.22,96.1233 1256.75,93.5601C1258.08,91.3425 1259.17,88.9251 1259.18,88.1881C1259.19,86.2081 1263.3,83.0448 1265.94,82.972C1270.9,82.8352 1281.24,90.2539 1281.28,93.9844C1281.3,95.0033 1281.99,97.1075 1282.82,98.6587C1283.65,100.21 1284.84,104.11 1285.48,107.325C1286.11,110.54 1287.12,115.414 1287.7,118.156C1289.29,125.567 1290.09,145.11 1289.07,151.909C1288.6,155.183 1287.24,159.92 1286.06,162.436C1284.89,164.951 1283.56,168.747 1283.13,170.871C1282.7,172.994 1281.98,176.549 1281.53,178.772C1281.08,180.993 1279.98,183.63 1279.1,184.632C1278.22,185.634 1277.52,187.964 1277.54,189.81C1277.56,191.657 1276.78,194.106 1275.79,195.255C1274.81,196.403 1272.1,200.518 1269.79,204.399L1265.57,211.455L1266.65,217.441C1268.04,225.185 1271.39,233.745 1274.08,236.477C1277.41,239.843 1284.91,240.396 1289.49,237.614C1291.5,236.395 1293.13,234.992 1293.13,234.496C1293.12,234.001 1293.77,233.587 1294.57,233.576C1295.37,233.566 1297.25,231.853 1298.77,229.771C1302.38,224.795 1304,223.522 1306.81,223.447C1308.92,223.39 1309.08,223.693 1308.48,226.61C1306.82,234.634 1296.08,246.808 1287.81,250.032C1278.25,253.76 1276.34,253.803 1271.31,250.409L1271.31,250.409ZM1269.26,179.571C1270.32,176.624 1271.48,172.446 1271.84,170.287C1272.22,168.127 1273.36,165.122 1274.39,163.612C1275.55,161.901 1276.79,156.973 1277.67,150.568C1278.83,142.082 1278.86,138.515 1277.82,130.287C1275.09,108.706 1268.91,96.5139 1266.98,108.903C1266.65,111.089 1265.53,113.971 1264.5,115.308C1260.82,120.121 1259.58,145.549 1261.75,172.001C1262.26,178.32 1262.89,183.825 1263.14,184.234C1263.39,184.643 1264.44,184.967 1265.47,184.954C1266.81,184.936 1267.88,183.419 1269.26,179.571L1269.26,179.571ZM1227.34,250.472C1223.23,247.82 1218.32,242.427 1216.54,238.6C1216.15,237.78 1214.27,234.992 1212.35,232.404C1208.18,226.773 1205.73,226.46 1196.57,230.38C1192.65,232.055 1188.66,232.957 1184.96,233.008C1179.86,233.08 1178.85,232.713 1174.49,229.202C1171.83,227.066 1169.07,223.971 1168.36,222.324C1166.7,218.515 1166.39,203.059 1167.92,199.457C1169.61,195.442 1174.65,189.145 1176.19,189.125C1176.92,189.115 1177.52,188.707 1177.51,188.218C1177.5,187.73 1179.19,187.025 1181.24,186.652C1183.3,186.28 1187.71,185.432 1191.03,184.768C1205.37,181.899 1216.84,191.304 1214.62,204.116C1213.8,208.901 1213.87,209.13 1217.33,212.584C1219.29,214.536 1221.72,217.676 1222.73,219.563C1223.74,221.45 1225.06,223.887 1225.68,224.979C1226.28,226.071 1227.47,228.531 1228.33,230.444C1229.17,232.359 1232.67,236.884 1236.08,240.502C1242.83,247.634 1243.14,249.26 1238.28,251.853C1234.27,253.997 1232.46,253.767 1227.34,250.472L1227.34,250.472ZM1193.24,216.73C1201.37,210.967 1203,204.864 1197.59,200.434C1194.29,197.724 1189.92,197.187 1186.5,199.07C1182.19,201.456 1180.29,212.431 1183.45,216.809C1185.47,219.622 1189.19,219.592 1193.24,216.73L1193.24,216.73ZM1343.81,247.964C1342.15,247.566 1338.39,246.009 1335.45,244.503C1328.93,241.16 1327.34,238.155 1325.5,225.69C1324.33,217.796 1324.37,216.005 1325.83,210.684C1328.38,201.395 1332.14,194.093 1337.38,188.261C1341.6,183.55 1342.6,182.942 1346.15,182.896C1351.28,182.828 1356.09,184.382 1360.39,187.493C1363.71,189.89 1363.78,190.106 1363.3,195.474C1363.03,198.509 1362.22,201.371 1361.52,201.837C1358.98,203.49 1355.44,202.733 1352.02,199.81C1349.12,197.335 1348.21,197.03 1346.52,197.962C1345.41,198.577 1343.84,200.739 1343.04,202.768C1342.22,204.798 1341.02,207.14 1340.36,207.974C1339.71,208.807 1338.6,211.374 1337.9,213.677C1336.77,217.458 1336.88,218.623 1339.15,225.662C1341.45,232.871 1341.94,233.605 1345.65,235.402C1353.67,239.28 1369.24,237.028 1374.27,231.265C1376.58,228.624 1377.35,228.324 1380.49,228.869C1383.63,229.415 1384.07,229.856 1384.11,232.415C1384.14,234.782 1383.16,236.086 1378.95,239.277C1376.09,241.444 1371.96,244.01 1369.77,244.979C1367.58,245.948 1365.02,247.179 1364.07,247.714C1362.06,248.85 1348.2,249.02 1343.81,247.964L1343.81,247.964ZM722.837,254.22C720.624,253.207 717.444,250.955 715.771,249.214L712.729,246.047L712.744,232.738C712.754,223.806 713.28,217.545 714.343,213.698C715.952,207.884 715.489,199.166 713.574,199.191C713.069,199.198 710.856,199.951 708.658,200.864C704.155,202.735 700.561,202.269 697.655,199.438C695.994,197.82 695.858,197.008 696.701,193.725C697.893,189.083 699.861,186.797 707.055,181.702C715.401,175.791 720.699,176.941 726.064,185.826L728.836,190.418L727.286,205.476C726.432,213.758 725.293,222.15 724.755,224.125C723.327,229.368 725.527,238.595 728.687,240.607C732.702,243.163 740.259,239.875 746.971,232.651C751.003,228.311 752.078,227.689 755.628,227.642C760.195,227.582 763.021,229.809 763.069,233.505C763.124,237.672 753.609,245.465 739.322,252.955C733.747,255.879 727.512,256.356 722.837,254.22L722.837,254.22ZM1086.32,250.308C1085.48,249.786 1082.74,249.379 1080.23,249.403C1076.14,249.444 1075.31,249.046 1072.59,245.738C1068.24,240.455 1067.32,238.46 1067.69,235.051C1067.85,233.399 1067.44,229.129 1066.76,225.563C1066.07,221.996 1065.63,218.627 1065.78,218.075C1065.93,217.523 1066.01,214.596 1065.95,211.572C1065.87,207.211 1066.59,204.559 1069.41,198.755C1073.24,190.868 1074.66,189.529 1081.39,187.474C1086.64,185.874 1099.15,186.663 1101.27,188.728C1103.11,190.522 1105.98,190.418 1107.53,188.501C1109.04,186.628 1108.17,175.253 1105.88,167.045C1105.04,164.03 1103.97,156.619 1103.51,150.574C1103.04,144.53 1102.27,138.858 1101.78,137.969C1101.28,137.08 1100.89,135.06 1100.9,133.48C1100.91,131.9 1100.17,126.341 1099.28,121.127C1096.88,107.166 1092.82,80.4369 1092.25,74.8451C1091.31,65.7058 1094.86,63.1279 1102.86,67.1613C1105.99,68.7399 1107,69.9004 1107.41,72.3521C1108.02,76.0612 1109.5,107.354 1110.5,138.482C1111.12,157.455 1112.19,171.364 1113.76,180.942C1113.99,182.315 1114.55,186.133 1115,189.427C1115.49,192.942 1116.6,196.234 1117.69,197.394C1119.53,199.365 1122.24,214.147 1121.79,219.796C1121.54,222.924 1122.82,226.828 1124.08,226.811C1125.47,226.793 1125.21,232.041 1123.72,234.066C1122.11,236.24 1119.94,236.332 1116.06,234.391C1114.24,233.48 1113.1,233.318 1113.11,233.973C1113.14,236.523 1103.51,245.387 1097.62,248.239C1091.03,251.424 1088.76,251.84 1086.32,250.308L1086.32,250.308ZM1096.76,237.885C1103.29,233.997 1110.97,223.861 1110.91,219.216C1110.88,216.645 1109.88,215.441 1105.55,212.746C1104,211.787 1103.01,210.56 1103.33,210.02C1104.11,208.711 1100.19,202.661 1096.95,200.181C1093.93,197.867 1089.64,197.684 1085.85,199.708C1082.08,201.722 1080.36,204.055 1077.92,210.46C1075.17,217.702 1076,225.631 1080.3,233.077C1082.77,237.338 1083.84,238.292 1086.47,238.586C1092.55,239.267 1094.68,239.122 1096.76,237.885L1096.76,237.885ZM874.806,250.84C864.123,244.312 860.38,238.46 859.892,227.517C859.727,223.811 858.945,219.269 858.154,217.423L856.715,214.068L854.546,216.13C853.352,217.265 850.308,219.273 847.78,220.593C845.253,221.914 840.92,224.824 838.151,227.06C825.195,237.526 822.962,239.028 814.2,243.171C804.854,247.591 795.315,247.648 788.904,243.324C782.662,239.114 779.526,235.521 776.486,229.096C774.314,224.508 773.89,222.508 774.373,219.123C775.085,214.115 782.671,197.39 785.249,195.14C788.921,191.936 794.849,189.037 799.01,188.411C802.599,187.871 804.17,188.251 808.675,190.752C811.632,192.394 815.231,194.99 816.671,196.521C819.455,199.48 821.709,205.618 821.772,210.412C821.816,213.784 816.645,220.834 814.085,220.89C811.437,220.949 805.2,223.45 803.257,225.233C802.283,226.127 800.368,227.027 799,227.233C795.855,227.706 795.396,230.119 797.882,233.108C799.511,235.068 800.727,235.416 805.704,235.348C815.945,235.209 818.359,234.291 828.486,226.694C832.298,223.834 836.868,220.552 838.641,219.403C840.414,218.254 841.859,216.946 841.853,216.498C841.847,216.05 844.161,214.213 846.995,212.418C853.427,208.343 862.443,200.441 863.945,197.562C864.568,196.368 867.469,192.804 870.39,189.642C877.269,182.198 879.956,181.631 888.58,185.8C895.894,189.336 896.474,190.004 896.561,194.985C896.666,201.106 890.561,203.771 884.01,200.463C880.101,198.489 878.915,198.635 877.271,201.295C868.754,215.077 872.441,237.892 883.615,240.54C884.784,240.818 887.97,240.52 890.695,239.879C894.985,238.871 896.807,237.536 904.284,229.918C910.371,223.718 912.91,220.411 912.888,218.717C912.871,217.394 913.246,214.679 913.722,212.684C914.199,210.689 915.095,206.658 915.714,203.726C917.546,195.052 919.142,192.729 925.565,189.381C929.921,187.109 932.8,186.316 936.877,186.262C939.886,186.223 942.618,185.737 942.951,185.182C943.284,184.628 945.217,184.151 947.247,184.121C950.587,184.073 951.738,184.887 959.386,192.713C971.922,205.538 973.143,207.563 972.564,214.555C972.046,220.818 965.98,235.734 963.3,237.336C962.437,237.851 960.582,239.566 959.176,241.147C955.296,245.509 946.232,248.454 938.274,247.938C934.695,247.706 930.865,247.297 929.761,247.029C928.657,246.76 927.248,246.513 926.629,246.479C924.619,246.368 918.482,240.105 916.639,236.282C915.651,234.233 914.316,232.562 913.672,232.57C913.028,232.579 910.075,235.145 907.11,238.273C904.145,241.401 899.283,245.588 896.307,247.578C891.653,250.692 889.914,251.259 883.859,251.635C879.368,251.914 876.094,251.626 874.806,250.84L874.806,250.84ZM950.531,235.12C953.04,234.005 955.929,232.279 956.949,231.286C960.339,227.982 962.931,221.638 962.867,216.796C962.798,211.538 961.768,210.67 955.428,210.53C952.264,210.461 950.948,209.746 948.125,206.564C946.231,204.429 944.676,202.352 944.671,201.948C944.666,201.543 943.266,200.515 941.561,199.66C938.627,198.192 938.208,198.237 933.821,200.486C929.509,202.697 929.097,203.254 927.977,208.381C924.765,223.093 929.818,234.663 940.259,236.501C944.787,237.299 945.992,237.136 950.531,235.12L950.531,235.12ZM801.905,209.837C803.223,207.697 802.802,204.004 801.17,203.402C799.44,202.764 794.872,205.528 794.072,207.694C793.031,210.519 794.547,212.067 797.896,211.598C799.656,211.352 801.461,210.559 801.905,209.837L801.905,209.837ZM209.329,249.002C208.707,247.875 208.183,245.836 208.165,244.471C208.119,240.93 204.369,232.944 202.414,232.223C201.498,231.885 198.492,232.791 195.663,234.256C192.859,235.71 188.55,237.719 186.088,238.72C183.626,239.722 180.907,241.42 180.045,242.493C178.667,244.209 177.704,244.367 172.062,243.804C168.533,243.453 164.88,242.506 163.944,241.702C163.01,240.897 160.741,239.512 158.903,238.624C154.973,236.726 154.321,234.628 153.995,222.856C153.476,204.034 159.202,194.949 176.391,187.326C180.959,185.3 182.923,184.987 188.566,185.386C195.057,185.844 198.585,186.974 201.061,189.386C201.708,190.017 203.639,191.68 205.352,193.083C207.065,194.487 209.702,198.159 211.212,201.242C213.742,206.409 213.861,207.158 212.722,210.766C211.334,215.162 211.864,221.191 214.496,230.957C214.897,232.448 217.684,235.875 220.69,238.575C223.695,241.275 226.162,244.112 226.172,244.88C226.209,247.656 222.431,249.807 216.422,250.432C211.119,250.983 210.336,250.825 209.329,249.002L209.329,249.002ZM187.635,229.408C197.516,224.295 198.53,223.048 196.935,217.966C196.248,215.778 194.679,213.077 193.449,211.965C192.218,210.852 190.471,207.837 189.569,205.263C186.727,197.172 181.584,196.425 173.8,202.976C168.903,207.098 167.886,209.298 166.699,218.339C165.666,226.214 166.822,229.548 171.332,231.698C176.196,234.018 179.666,233.531 187.635,229.408L187.635,229.408ZM323.895,242.123C320.417,239.79 318.083,237.5 318.069,236.407C318.056,235.404 316.662,232.035 314.971,228.92C311.615,222.739 311.306,220.326 312.838,212.273C315.268,199.511 315.637,198.606 319.122,196.897C320.95,196 322.702,194.837 323.018,194.312C323.967,192.729 331.502,191.007 339.863,190.463C346.305,190.043 348.52,190.308 351.944,191.91C357.173,194.358 361.106,198.399 362.058,202.301C362.458,203.945 363.888,206.928 365.235,208.928C369.58,215.386 369.471,216.62 363.97,223.31C356.985,231.807 353.307,235.717 347.104,241.247C341.895,245.89 341.479,246.064 335.697,246.041C330.421,246.02 328.995,245.547 323.895,242.123L323.895,242.123ZM338.762,232.588C340.428,231.73 342.334,230.355 342.998,229.532C343.662,228.71 344.756,228.03 345.427,228.021C347.337,227.996 354.46,218.724 355.022,215.532C355.973,210.126 351.557,205.025 345.941,205.044C344.17,205.049 341.009,204.19 338.914,203.133C333.223,200.26 331.126,201.34 327.62,208.942C324.178,216.402 324.229,221.392 327.79,225.8C328.986,227.281 329.974,229.108 329.984,229.858C329.994,230.609 330.452,231.217 331.002,231.21C331.552,231.203 332.011,231.872 332.022,232.697C332.047,234.621 334.906,234.574 338.762,232.588L338.762,232.588ZM482.172,243.211C480.791,242.73 478.47,242.114 477.014,241.842C473.969,241.275 468.549,233.805 466.794,227.76C466.19,225.678 464.838,223.392 463.79,222.677C461.815,221.332 461.071,216.082 462.707,215.04C463.202,214.725 464.968,211.638 466.632,208.179C473.005,194.931 476.841,191.897 488.658,190.749C498.664,189.777 512.259,194.459 515.148,199.873C517.092,203.513 517.356,218.299 515.54,221.79C514.819,223.174 513.24,226.235 512.031,228.592C510.821,230.949 508.428,233.877 506.714,235.098C505,236.319 502.442,238.694 501.031,240.377C498.688,243.168 497.863,243.462 491.574,243.761C487.784,243.941 483.554,243.693 482.172,243.211L482.172,243.211ZM494.459,232.18C494.753,231.689 496.551,230.974 498.454,230.591C502.726,229.731 505.946,225.754 505.888,221.404C505.839,217.601 504.391,216.185 499.714,215.366C495.407,214.61 492.77,212.416 492.732,209.555C492.688,206.174 490.281,204.783 485.976,205.648C477.134,207.427 475,210.41 476.177,219.345C476.971,225.371 479.06,228.571 483.84,231.081C487.705,233.112 493.538,233.715 494.459,232.18L494.459,232.18ZM259.496,243.672C258.326,242.875 257.044,240.98 256.647,239.459C256.25,237.939 254.849,235.584 253.534,234.226C252.219,232.868 250.26,229.579 249.18,226.917L247.215,222.076L249.791,214.408C253.529,203.275 258.029,195.506 261.228,194.658C262.67,194.276 264.947,193.077 266.288,191.993C269.909,189.068 276.26,189.268 279.749,192.419C281.274,193.797 282.53,195.491 282.539,196.183C282.563,198.074 280.447,199.868 278.137,199.916C277.009,199.939 274.971,200.63 273.607,201.452C272.243,202.275 269.227,203.904 266.906,205.071C260.914,208.087 259.395,211.64 260.066,221.08C260.839,231.955 264.28,236.086 272.48,235.978C279.241,235.889 285.333,231.917 293.656,222.172C295.364,220.173 296.669,219.61 299.126,219.816C301.828,220.041 302.412,220.542 302.713,222.891C303.246,227.064 298.806,232.382 292.162,235.525C289.097,236.975 284.134,239.686 281.133,241.547C276.335,244.523 274.829,244.943 268.651,245.026C264.068,245.088 260.884,244.617 259.496,243.672L259.496,243.672ZM99.7532,137.482C94.9025,135.139 94.4424,131.057 98.5151,126.5C102.437,122.111 108.328,121.755 111.527,125.714C114.726,129.672 114.331,133.462 110.398,136.544C106.494,139.603 104.505,139.779 99.7532,137.482L99.7532,137.482ZM1146.94,114.07C1144.73,112.562 1144.81,110.568 1148.11,88.2351C1148.65,84.5157 1148.92,73.6299 1148.68,64.0446C1148.26,46.6724 1148.27,46.6101 1150.68,44.5491C1154.76,41.0643 1158.6,42.2959 1158.66,47.1079C1158.68,48.409 1159.22,50.429 1159.86,51.597C1161.72,54.9699 1162.38,73.0594 1160.73,75.6695C1159.99,76.8608 1159.14,78.9637 1158.85,80.3427C1158.55,81.7216 1157.19,87.0161 1155.81,92.1083C1154.44,97.1999 1153.13,103.489 1152.89,106.082C1152.56,109.907 1150.4,115.456 1149.25,115.471C1149.11,115.473 1148.08,114.843 1146.94,114.07L1146.94,114.07Z" fill="#000000"/>
</g>
</svg>
